<?xml version="1.0" encoding="UTF-8"?>
<svg id="Layer_2" data-name="Layer 2" xmlns="http://www.w3.org/2000/svg" xmlns:xlink="http://www.w3.org/1999/xlink" viewBox="0 0 640 640">
  <defs>
    <style>
      .cls-1 {
        fill: none;
      }

      .cls-2 { fill: url(#tieGradient); }

      .cls-3 {
        fill: #fff;
      }

      .cls-4 {
        clip-path: url(#clippath);
      }
    </style>
    <clipPath id="clippath">
      <circle class="cls-1" cx="320" cy="320" r="320"/>
    </clipPath>
  </defs>
  <g class="cls-4">
    <circle class="cls-3" cx="320" cy="319" r="305.25"/>
    <path d="M357,640H0C0,426.67,0,213.33,0,0c213.33,0,426.67,0,640,0,0,213.33,0,426.67,0,640-94.17,0-188.33,0-283,0h0ZM72.36,467.92c.74.96.94,2.61,2.84,2.25.14-.5.37-.96.39-1.43,1.02-21.43,5.69-42.16,12.02-62.57,1.38-4.46,3.25-7.31,8.32-9.14,21.45-7.75,42.6-16.32,63.85-24.64,2.3-.9,4.9-1.34,6.67-3.25,5.14-5.51,10.93-10.25,17.11-14.54,3.16-2.2,3.7-4.89,1.87-8.21-3.07-5.55-5.75-11.28-7.37-17.45-.88-3.35-2.81-4.34-6.33-3.72-21.53,3.84-41.84,10.91-60.64,22.2-1.59.96-3.1,2.37-6.51,2.32,5.96-5.37,11.92-8.59,17.98-11.5,14.75-7.09,29.89-13.17,46.21-15.61,5.12-.77,7.98-2.95,6.99-8.54-.14-.81-.01-1.66,0-2.5.09-8.48-.37-8.97-8.91-9.16-1.5-.03-3.01-.12-4.5.03-19.36,2-38.83,3.19-57.72,8.46-2.33.65-4.77,2.05-7.89.87,2.46-2.07,4.98-2.4,7.31-3.07,21.41-6.21,43.39-8.62,65.58-9.01,5.11-.09,7.15-2.12,8.01-6.73,3.22-17.3,9.02-33.73,16.83-49.48,2.56-5.15,1.88-6.84-3.6-8.18-6.52-1.6-12.7-3.86-18.33-7.62-27.62-18.48-41.54-59.41-30.99-91.33,6.59-19.95,20.65-30.01,41.64-29.75,11.44.14,21.94,3.5,31.71,9.37,9.72,5.83,17.59,13.73,24.72,22.36,2.64,3.2,5.37,4.33,9.11,2.56,9.29-4.39,19.29-6.24,29.25-8.2,1.47-.29,3.61-.23,3.76-1.85.38-3.96,3.33-4.21,6.02-4.74,11.86-2.32,24.07-2.67,35.93-2.96,18.03-.45,35,5.88,49.97,16.49,6.98,4.95,6.84,4.93,12.2-1.99,11.46-14.81,25.67-25.65,44.37-29.53,27.33-5.67,48.01,7.46,53.81,34.18,2.09,9.64,2.26,19.36,1.47,29.28-2.26,28.38-22.82,54.9-49.93,63.41-5.79,1.82-6.59,3.31-3.86,8.58,8.54,16.5,15.03,33.75,19.2,51.85.73,3.19,2.29,4.47,5.53,4.31,4.78-.22,9.53.09,15.43,1.99-5.72.95-10.16,1.02-14.52.17-3.97-.77-5.26.77-4.98,4.45.26,3.49.67,6.98.66,10.47-.02,3.83,1.95,5.25,5.43,5.72,19.24,2.58,37.05,9.4,54.03,18.57,1.81.98,3.48,2.22,5.22,3.34-.21.37-.41.75-.62,1.12-3.41-1.55-6.86-3.02-10.22-4.67-15.5-7.61-31.75-12.89-48.76-15.9-2.98-.53-5.26-.6-6.14,2.99-1.83,7.5-4.67,14.57-8.95,21.04-1.9,2.86-1.07,4.95,1.85,6.52,3.84,2.07,7.43,4.56,10.35,7.78,4.19,4.6,9.11,7.65,15.27,8.76,2.11.38,4.15,1.22,6.18,1.97,18.91,6.97,37.59,14.65,56.8,20.66,8.68,2.71,12.01,7.97,13.88,15.59,5.78,23.49,10.1,47.19,10.15,71.5,0,1.89-.39,4.01,1.7,5.63,4.41-4.12,6.63-9.59,9.52-14.56,41.89-72.1,51.02-148.55,28.15-228.36-16.26-56.73-46.93-105.05-91.59-143.93-49.39-43-107.3-65.77-172.5-68.96-41.4-2.02-81.58,4.95-119.99,21.19-44.39,18.76-82.45,46.03-113.3,83.18-33.1,39.85-53.35,85.63-63.16,136.3-5.43,28.04-6.72,56.2-2.74,84.45,5.54,39.35,18.14,76.34,38.8,111.19h0ZM147.01,181.56c1.86,6.25,4.29,12.28,7.75,17.82,11.37,18.2,27.1,29.08,49.27,28.58,9.55-.22,9.36-.48,5.6,8.52-7.51,17.96-15.38,35.82-19.71,54.94-1.45,6.42-.53,8.09,5.25,8.21,20.39.42,40.42,3.46,60.19,8.34,1.74.43,3.99.47,4.82,2.87-2.2,1.17-4.13.41-6.01-.02-17.39-4-34.96-6.78-52.75-8.27-12.66-1.06-14.14.29-13.34,12.62.3,4.58,2.24,6.13,6.67,5.63,19.77-2.23,39.56-1.88,59.34-.17,1.83.16,4.12-.62,5.09,2.1-1.76,1.04-3.62.66-5.41.66-9.66.04-19.27-1.45-28.96-.99-9.32.44-18.65.62-27.97,1.08-6.64.33-8.48,2.93-6.07,9.03,1.89,4.78,4.46,9.3,6.78,13.91,1.9,3.75,4.33,4.52,8.51,2.7,16.73-7.27,34.32-11.67,52.26-14.76,1.59-.27,3.48-1.26,5.15,1.53-4.12.88-7.81,1.63-11.49,2.47-14.79,3.36-29.41,7.32-43.54,12.88-4.9,1.93-5.29,4.03-1.35,7.52,4.99,4.41,10.31,8.45,15.33,12.83,2.49,2.18,4.47,2.15,6.96.03,10.76-9.18,23.33-15.37,36.03-21.29,1.71-.8,3.4-2.28,5.8-.97-1.3,3.18-4.43,3.87-6.93,5.11-9.71,4.82-19.37,9.7-28.23,16.01-1.84,1.31-4.06,2.34-4.76,5.32,6.53,3.98,13.33,7.28,20.96,8.69,15.4,2.84,30.71,6.04,45.48,11.37,11.83,4.27,23.68,4.4,35.73.83,7.97-2.36,16.11-4.16,24.16-6.27,11.92-3.12,24.07-5.37,35.74-9.38,4.5-1.55,4.75-3.17,1.09-6.06-3.39-2.69-6.93-5.19-10.45-7.71-8.31-5.95-18.07-9.29-26.55-14.92-1.39-.92-3.55-1.26-3.63-3.67,1.83-.97,3.27.14,4.67.85,13.94,7.14,28.07,13.98,40.15,24.18,2.42,2.04,4.45,2.39,7.07.41,5.45-4.12,11.02-8.07,15.73-13.08,6.48-6.9,6.24-7.66-2.58-11.1-16.08-6.27-32.96-9.35-49.76-12.77-1.96-.4-4.28-.19-5.89-2.06,1.43-2.04,3.1-1.16,4.62-.9,19.56,3.33,38.99,7.19,57.33,15.14,3.54,1.53,5.73.43,7.4-2.62,2.4-4.38,4.99-8.64,6.83-13.33,3.75-9.56,3.02-10.6-7.46-10.99-20.65-.78-41.29-1.12-61.9.94-1.76.18-3.88.73-5.28-1.17,1.1-1.97,2.77-1.39,4.16-1.57,20.41-2.63,40.86-2.21,61.35-1,12.5.74,13.19-.4,11.43-12.98-.47-3.39-1.86-4.88-5.57-4.69-23,1.22-45.79,3.78-68.06,9.93-1.52.42-3.08.92-4.48-.51,1.29-2.04,3.24-2.19,4.93-2.66,20.15-5.62,40.76-8.22,61.61-9,10.96-.41,11.09-.38,7.51-11.05-6.09-18.18-13.48-35.85-21.04-53.45-2.4-5.59-1.72-6.73,4.38-6.61,11.24.23,21.31-3.32,30.51-9.51,27.85-18.76,36.25-61.78,22.7-88.65-6.16-12.21-16.51-18.87-30.38-17.89-8.92.63-16.87,4.65-23.88,10.48-8.98,7.46-15.81,16.61-21.93,26.4-2.2,3.52-4.58,6.94-7.01,10.32-1.56,2.17-3.3,2.38-5.36.31-12.46-12.53-27.68-19.98-44.7-24.11-5.8-1.41-6.48-.68-5.3,5.1.66,3.23,3.71,7.53.23,9.6-2.82,1.68-5.66-2.47-8.1-4.53-5.97-5.06-12.61-8.64-20.28-10.29-1.55-.33-3.07-.45-4.19.78-1.29,1.4-.28,2.76.36,4.13.88,1.88,2.52,3.62,1.05,6.79-25.93-6.41-50.1-2.73-71.42,15.25-3.24-2.73-4.64-6.77-6.76-10.25-8.1-13.34-16.88-26-30.73-34.2-16.55-9.8-32.44-6.98-43.13,7.92-2.94,4.1-4.83,8.73-6.14,13.59-3.68,13.69-2.86,27.35.51,41.76h0ZM245.79,460.77c2.43,3.58,4.74,7.24,7.3,10.72,5.12,6.96,6.76,6.9,11.35-.22,10.26-15.93,18.99-32.86,31.26-47.48,4.11-4.89,3.8-5.65-2.12-8.67-22.53-11.46-45.08-22.9-67.61-34.36-1.05-.53-2.07-1.14-3.37-.36-1.35,1.83-.31,3.78.09,5.64,2.2,10.06,4.4,20.12,6.77,30.14,3.62,15.26,4.8,31.42,16.32,44.58h0ZM399.41,442.86c.21-1.48.34-2.98.64-4.45,3.59-17.59,7.21-35.19,10.83-52.78.33-1.59,1.39-3.4-.24-4.65-1.84-1.42-3.47.2-4.98,1.08-3.6,2.09-7.06,4.42-10.66,6.5-17.04,9.86-35.26,17.35-52.69,26.44-5.59,2.92-5.88,4.12-1.95,8.88,1.17,1.41,2.35,2.81,3.49,4.25,11.23,14.11,20.45,29.58,30.13,44.73,2.83,4.43,4.15,4.62,7.3.55,3.16-4.08,6.15-8.31,8.92-12.66,3.46-5.44,7.84-10.44,9.22-17.9h0ZM248.37,490.23c10.41,28.79,20.84,57.57,35.08,84.94,3.01-5,2.55-10.36,3.15-15.47,2.82-23.97,6.42-47.76,14.56-70.63.76-2.15,1.79-4.35.58-6.73-3.83-7.56-7.57-15.17-11.48-22.69-1.19-2.29-2.11-3.74-2.99-4.35-1.48-1.02-2.88.29-5.34,3.87-4.72,6.85-9.01,14-13.88,20.74-5.42,7.49-8.31,7.61-15.54,2.06-1.95-1.5-3.25-4.37-6.67-3.99-1.18,4.34,1.26,7.79,2.54,12.26h0ZM378.83,523.44c4.86-15.82,11.04-31.29,13.46-47.83-4.09,1.17-5.72,4.39-8.11,6.78-5.15,5.15-10.5,4.66-14.37-1.52-4.06-6.48-7.99-13.05-12.16-19.47-2.93-4.5-5.44-4.41-8.07.26-3.75,6.67-7.26,13.47-10.96,20.17-.87,1.58-1.07,3.02-.46,4.74,8.63,24.09,13.13,49.04,15.63,74.44.45,4.61.41,9.5,3.5,14.09,9.4-16.04,14.74-33.74,21.53-51.66h0ZM342.31,401c-7.58.94-15.15,2.06-22.76,2.78-7.33.69-14.7-1.67-22.26-.07,6.69,5.03,13.26,9.76,19.43,15.02,1.77,1.51,3.43.51,4.86-.83,5.75-5.38,12.32-9.62,18.91-13.85.98-.63,3.11-.76,1.82-3.03h0ZM307.83,429.81c2.19-.31,6.81.8,10.77-.4-.62-2.62-6.67-4.58-8.85-5.06-2.57-.57-4.64,1.14-5.47,3.27-.99,4.21,1.4,1.98,3.55,2.19h0ZM326.16,429.85c1.97-.15,6.45,2.58,5.89-1.62-2.03-3.05-6.16-3.99-8.4-2.12-.68.52-3.91,2.69-3.99,3.16-.15.78,4.29.72,6.5.59h0ZM435.91,522.95c.26.14.51.28.77.41"/>
    <path d="M189.25,125.89c-.45-2.4-.92-4.46-1.51-7.09,6.5.38,10.6,3.77,13.59,8.49,6.07,9.56,8.86,20.39,11.04,31.33,2.07,10.42,3.57,20.95,5.46,31.4.38,2.11.13,4.01-.81,5.79-2.87,5.44-5.75,10.88-8.84,16.19-2.37,4.09-5.73,3.97-9.34,1.57-7-4.67-11.99-11.02-15.16-18.73-7.61-18.44-8.6-37.1-1.07-55.81,1.79-4.43,4.4-8.53,6.65-13.13Z"/>
    <path d="M435.63,201.52c-3.07,4.47-6.6,7.93-11.01,10.49-2.99,1.74-5.15,1.51-6.91-1.83-3.18-6.04-6.57-11.96-9.95-17.89-1.04-1.82-1.46-3.71-1.27-5.74,1.35-14.74,2.61-29.53,7.46-43.63,3.18-9.23,7.48-17.88,16.67-22.84,2.58-1.39,5.18-2.73,8.07-3.09.22.62.36.85.31.9-6.75,6.54-3.36,12.03.28,19.12,11.16,21.73,8.56,43.39-3.66,64.51Z"/>
    <path d="M228.85,255.67c.14-8.82,3.84-15.49,10.6-20.21,6.09-4.25,14.15-3.92,19.64.15,6.56,4.86,9.57,12.71,7.74,20.16-2.28,9.23-10.56,16.11-19.65,16.34-8.79.22-15.06-5.28-18.33-16.44M251.86,245.5c2.01,2.59,4.3,3.87,6.82.78,1.83-2.23,1.1-4.32-1.16-5.87-3.09-2.11-5.39-.37-5.66,5.08Z"/>
    <path d="M335.03,372.55c4.41-.34,8.4-.58,11.91-2.86,1.39-.9,3.27-1.98,4.44-.19,1.35,2.06-.55,3.46-2.09,4.37-9.89,5.88-20.37,5.93-30.74,1.91-4.29-1.66-7.55-1.43-11.69.31-8.3,3.48-16.86,3.55-25.05-.84-2.17-1.17-4.33-2.49-4.78-5.59,2.55-1.86,4.79-.26,6.84.79,6.88,3.52,13.61,2.17,20.27-.43,3.75-1.46,5.8-4.15,5.51-8.5-.45-6.97-.69-13.96-.9-20.95-.07-2.49-1.11-4.05-3.43-4.9-8.3-3.04-12.31-9.83-15.02-17.59-2.27-6.5-.42-11.37,6.07-13.77,10.77-3.99,21.86-4.27,32.65.07,5.76,2.31,8.09,7.54,5.71,13.11-3.54,8.3-7.49,16.54-17.53,19.01-2.11.52-2.73,2.12-2.83,4.16-.37,7.52.57,14.96,1.12,22.43.23,3.12,2.52,4.92,5.07,6.37,4.36,2.48,9.23,2.59,14.45,3.11M330.31,311.47c-1.46-2.49-3.87-3.49-6.49-4.25-7.05-2.04-14.28-1.61-21.25-.34-9.14,1.66-10.72,6.06-6.11,14.21.33.58.68,1.14,1.04,1.7,4.99,7.95,11.65,11.02,19.16,8.84,6.94-2.02,14.05-11.97,13.65-20.16Z"/>
    <path d="M387.31,237.63c4.76,5.29,8.86,10.64,8.31,17.84-.72,9.3-7.33,15.57-16.56,16.27-8.86.67-18-5.49-20.36-13.73-3.9-13.63,4.79-26.2,17.53-25.34,4.15.28,7.57,2.3,11.08,4.95M380.08,248.48c3.38-1.35,4.7-3.65,2.74-6.96-1.19-2.02-3.28-2.77-5.58-2.03-1.91.61-3.01,2.1-2.84,4.14.25,2.97,1.68,4.94,5.68,4.85Z"/>
    <path class="cls-2" d="M332.05,429.7l20.71,28.55c-6.49,7.79-11.25,17.33-14.6,28.32,12.7,26.32,15.77,56.25,19.13,88.53l-16.22,13.35-18.11,14.9-19.5-13.91-20-14.27c3.25-32.05,7.49-62.28,18.84-90-3.97-10-8.87-19.96-15.02-29.86l16.84-25.59,27.94-.02ZM322.96,603.35s-3.96,1.46-22.86-11.82c-15.82-11.12-16.64-16.36-16.64-16.36M357.29,575.1s.35,4.6-11.09,16.04-23.25,12.22-23.25,12.22M322.96,603.35c-15.27-1.39-34.51-12.64-39.5-28.18"/>
  </g>
  <path class="cls-3" d="M303.44,485.34s24.89.09,29.94.33c1.66.08,4.85,1.02,3.05.03s-32.99-.36-32.99-.36Z"/>
</svg>