<svg xmlns="http://www.w3.org/2000/svg" viewBox="0 0 160 160" role="img" aria-label="Job Buddy icon">
  <defs>
    <linearGradient id="jobBuddyBg" x1="20" x2="140" y1="18" y2="142" gradientUnits="userSpaceOnUse">
      <stop offset="0" stop-color="#faffbd" />
      <stop offset="0.48" stop-color="#c6ff5b" />
      <stop offset="1" stop-color="#4ad6ff" />
    </linearGradient>
    <linearGradient id="jobBuddyMark" x1="44" x2="118" y1="44" y2="122" gradientUnits="userSpaceOnUse">
      <stop offset="0" stop-color="#0a0512" />
      <stop offset="1" stop-color="#352158" />
    </linearGradient>
    <filter id="jobBuddyShadow" x="-20%" y="-20%" width="140%" height="140%">
      <feDropShadow dx="0" dy="8" stdDeviation="7" flood-color="#0a0512" flood-opacity="0.22" />
    </filter>
  </defs>
  <rect width="160" height="160" rx="42" fill="url(#jobBuddyBg)" />
  <path
    fill="#ffffff"
    fill-opacity="0.36"
    d="M24 47c0-12.7 10.3-23 23-23h54c-13.8 12.3-30.7 22.7-50.8 31.2C38.6 60.1 24 56.4 24 47Z"
  />
  <g filter="url(#jobBuddyShadow)">
    <path
      fill="url(#jobBuddyMark)"
      d="M50 62h60c8.8 0 16 7.2 16 16v37c0 8.8-7.2 16-16 16H50c-8.8 0-16-7.2-16-16V78c0-8.8 7.2-16 16-16Z"
    />
    <path
      fill="none"
      stroke="#0a0512"
      stroke-linecap="round"
      stroke-width="12"
      d="M62 62v-9c0-10 8-18 18-18s18 8 18 18v9"
    />
    <path
      fill="#f6efe6"
      d="M54 74h52c3.3 0 6 2.7 6 6v34c0 3.3-2.7 6-6 6H54c-3.3 0-6-2.7-6-6V80c0-3.3 2.7-6 6-6Z"
    />
    <path
      fill="#ff5b3a"
      d="M65 91h30a4 4 0 0 1 0 8H65a4 4 0 0 1 0-8Zm0 17h20a4 4 0 0 1 0 8H65a4 4 0 0 1 0-8Z"
    />
    <path
      fill="#7a3dff"
      d="M111 38l4.6 10.1 10.1 4.6-10.1 4.6L111 67.4l-4.6-10.1-10.1-4.6 10.1-4.6L111 38Z"
    />
  </g>
</svg>
